<svg width="24" height="24" viewBox="0 0 24 24" fill="none" xmlns="http://www.w3.org/2000/svg">
<path fill-rule="evenodd" clip-rule="evenodd" d="M10.5858 2.38387C11.0175 2.13221 11.5046 2 12 2C12.4954 2 12.9825 2.13221 13.4142 2.38387C13.8459 2.63553 14.2077 2.99814 14.4646 3.43673L14.4674 3.44146L22.6059 17.5092L22.6137 17.5229C22.8654 17.9742 22.9986 18.4859 23 19.007C23.0014 19.5282 22.871 20.0406 22.6217 20.4934C22.3725 20.9462 22.0131 21.3235 21.5793 21.5878C21.1455 21.8521 20.6524 21.9942 20.1491 21.9999L20.1385 22L3.85091 21.9999C3.34761 21.9942 2.85453 21.8521 2.42073 21.5878C1.98692 21.3235 1.62751 20.9462 1.37826 20.4934C1.12901 20.0406 0.998602 19.5282 1.00001 19.007C1.00142 18.4859 1.1346 17.9742 1.38629 17.5229L1.3941 17.5092L9.53263 3.44146L10.3569 3.9527L9.53538 3.43673C9.79232 2.99814 10.1541 2.63553 10.5858 2.38387ZM11.1796 4.4667L3.04732 18.5236C2.96548 18.6727 2.9222 18.8411 2.92173 19.0126C2.92126 19.1863 2.96473 19.3571 3.04782 19.5081C3.1309 19.659 3.2507 19.7848 3.3953 19.8729C3.53864 19.9602 3.70139 20.0075 3.86762 20.0102H20.1324C20.2986 20.0075 20.4614 19.9602 20.6047 19.8729C20.7493 19.7848 20.8691 19.659 20.9522 19.5081C21.0353 19.3571 21.0787 19.1863 21.0783 19.0126C21.0778 18.8411 21.0345 18.6727 20.9527 18.5237L12.8215 4.46868C12.8212 4.46802 12.8208 4.46736 12.8204 4.4667C12.7348 4.3214 12.6146 4.20124 12.4714 4.11773C12.3275 4.03384 12.1651 3.98977 12 3.98977C11.8349 3.98977 11.6725 4.03384 11.5286 4.11773C11.3853 4.20124 11.2652 4.3214 11.1796 4.4667Z" fill="#D32416"/>
<path fill-rule="evenodd" clip-rule="evenodd" d="M12 8C12.5523 8 13 8.44772 13 9V13C13 13.5523 12.5523 14 12 14C11.4477 14 11 13.5523 11 13V9C11 8.44772 11.4477 8 12 8Z" fill="#D32416"/>
<path fill-rule="evenodd" clip-rule="evenodd" d="M12 15C12.5523 15 13 15.4477 13 16V16.5C13 17.0523 12.5523 17.5 12 17.5C11.4477 17.5 11 17.0523 11 16.5V16C11 15.4477 11.4477 15 12 15Z" fill="#D32416"/>
</svg>
