<svg width="103" height="33" viewBox="0 0 103 33" fill="none" xmlns="http://www.w3.org/2000/svg">
<path d="M51.0441 33.0001C60.0044 33.0001 67.2681 25.674 67.2681 16.6369C67.2681 7.59974 60.0044 0.273682 51.0441 0.273682C42.0839 0.273682 34.8202 7.59974 34.8202 16.6369C34.8202 25.674 42.0839 33.0001 51.0441 33.0001Z" fill="#0079E8"/>
<path d="M1.35633 10.7923L1.57565 12.2069C2.08932 11.8809 2.55682 11.6131 2.97237 11.4036C3.38793 11.194 3.76308 11.031 4.09207 10.9146C4.42105 10.7982 4.7154 10.7225 4.97512 10.6817C5.23484 10.641 5.47148 10.6235 5.69657 10.6235C6.85666 10.6235 7.79166 10.967 8.50734 11.6481C9.22302 12.3291 9.58086 13.3944 9.58086 14.8439V18.6974C9.58086 20.0654 9.21148 21.1132 8.47271 21.8467C7.73395 22.5801 6.71237 22.9469 5.40799 22.9469C4.94049 22.9469 4.4095 22.9003 3.80349 22.8013C3.19747 22.7024 2.4587 22.4463 1.56988 22.0213V27.6853H0V10.7923H1.35633ZM1.56988 20.4554C2.39521 20.828 3.08781 21.0899 3.65342 21.2355C4.21904 21.381 4.7558 21.4567 5.27524 21.4567C6.11213 21.4567 6.78163 21.2355 7.27222 20.7872C7.7628 20.339 8.01098 19.5881 8.01098 18.5286V15.0418C8.01098 13.9823 7.79166 13.243 7.35879 12.8181C6.92592 12.3932 6.33145 12.1836 5.59268 12.1836C5.35027 12.1836 5.06169 12.2243 4.73271 12.3058C4.40373 12.3873 4.05744 12.5038 3.70537 12.6493C3.3533 12.7948 2.98969 12.9695 2.62608 13.1732C2.26247 13.3769 1.9104 13.5923 1.57565 13.8193V20.4554H1.56988Z" fill="#202020"/>
<path d="M13.4537 27.6794L15.2198 22.65L14.3714 21.8699L10.9142 10.769H12.6053C12.6861 10.9961 12.8015 11.3686 12.9573 11.8809C13.1132 12.3931 13.269 12.9287 13.4306 13.4933C13.5922 14.0522 13.748 14.5935 13.9039 15.1058C14.0539 15.618 14.1751 15.9906 14.256 16.2176L15.8258 21.3402H15.872L17.6843 16.2176C17.7651 15.9906 17.8978 15.618 18.0825 15.1058C18.2672 14.5935 18.4577 14.058 18.6539 13.4933C18.8501 12.9345 19.0348 12.3931 19.208 11.8809C19.3869 11.3686 19.5139 10.9961 19.5947 10.769H21.2915C21.1126 11.2406 20.8702 11.9216 20.5528 12.8064C20.2411 13.6913 19.8775 14.6867 19.4793 15.781C19.0752 16.8812 18.6539 18.028 18.221 19.2213C17.7882 20.4147 17.3726 21.5614 16.9744 22.6616C16.5761 23.7618 16.2183 24.7514 15.8951 25.6362C15.5719 26.521 15.3295 27.2021 15.1679 27.6736H13.4537V27.6794Z" fill="#202020"/>
<path d="M27.34 10.5945C28.0038 10.5945 28.6733 10.6818 29.3601 10.8564C30.0469 11.0311 30.6472 11.3862 31.1608 11.9159L30.1912 13.1325C29.6891 12.6959 29.2043 12.4107 28.7252 12.2768C28.2519 12.1487 27.8191 12.0789 27.4324 12.0789C27.063 12.0789 26.6878 12.1371 26.3069 12.2477C25.926 12.3641 25.5855 12.5446 25.2796 12.8007C24.9737 13.0568 24.7255 13.3886 24.5408 13.8019C24.3561 14.2152 24.2638 14.7217 24.2638 15.3096V18.1969C24.2638 18.7848 24.3561 19.2796 24.5408 19.6871C24.7255 20.0946 24.9679 20.4264 25.268 20.6767C25.5682 20.927 25.9029 21.1191 26.2838 21.2413C26.6648 21.3636 27.0457 21.4218 27.4324 21.4218C27.8018 21.4218 28.2577 21.3461 28.7887 21.2006C29.3197 21.0551 29.7699 20.8106 30.145 20.4671L31.1377 21.6139C30.6068 22.0854 30.0123 22.4172 29.3601 22.6151C28.7079 22.813 28.0499 22.9062 27.3862 22.9062C26.6763 22.9062 26.0299 22.8014 25.4527 22.586C24.8698 22.3765 24.3792 22.0796 23.9694 21.6954C23.5596 21.3112 23.248 20.8571 23.0229 20.3274C22.7978 19.7977 22.6881 19.2156 22.6881 18.5811V14.9953C22.6881 14.3258 22.8093 13.7204 23.046 13.1791C23.2826 12.6319 23.6174 12.172 24.0387 11.7878C24.46 11.4036 24.9564 11.1067 25.522 10.8972C26.0934 10.6993 26.6936 10.5945 27.34 10.5945Z" fill="#202020"/>
<path d="M73.1897 10.7923L73.409 12.2069C73.9227 11.8809 74.3902 11.6131 74.8057 11.4036C75.2213 11.194 75.5964 11.031 75.9254 10.9146C76.2544 10.7982 76.5487 10.7225 76.8085 10.6817C77.0682 10.641 77.3048 10.6235 77.5299 10.6235C78.69 10.6235 79.625 10.967 80.3407 11.6481C81.0564 12.3291 81.4142 13.3944 81.4142 14.8439V18.6974C81.4142 20.0654 81.0448 21.1132 80.3061 21.8467C79.5673 22.5801 78.5457 22.9469 77.2413 22.9469C76.7738 22.9469 76.2428 22.9003 75.6368 22.8013C75.0308 22.7024 74.292 22.4463 73.4032 22.0213V27.6853H71.8333V10.7923H73.1897ZM73.409 20.4554C74.2343 20.828 74.9269 21.0899 75.4925 21.2355C76.0582 21.381 76.5949 21.4567 77.1144 21.4567C77.9512 21.4567 78.6208 21.2355 79.1113 20.7872C79.6019 20.339 79.8501 19.5881 79.8501 18.5286V15.0418C79.8501 13.9823 79.6308 13.243 79.1979 12.8181C78.765 12.3932 78.1706 12.1836 77.4318 12.1836C77.1894 12.1836 76.9008 12.2243 76.5718 12.3058C76.2428 12.3873 75.8966 12.5038 75.5445 12.6493C75.1924 12.7948 74.8288 12.9695 74.4652 13.1732C74.1016 13.3769 73.7495 13.5923 73.4148 13.8193V20.4554H73.409Z" fill="#202020"/>
<path d="M85.2927 27.6794L87.0588 22.65L86.2104 21.8699L82.7532 10.769H84.4443C84.5251 10.9961 84.6405 11.3686 84.7963 11.8809C84.9522 12.3931 85.108 12.9287 85.2696 13.4933C85.4312 14.0522 85.587 14.5935 85.7429 15.1058C85.8929 15.618 86.0141 15.9906 86.0949 16.2176L87.6648 21.3402H87.711L89.5233 16.2176C89.6041 15.9906 89.7368 15.618 89.9215 15.1058C90.1062 14.5935 90.2967 14.058 90.4929 13.4933C90.6891 12.9345 90.8738 12.3931 91.047 11.8809C91.2259 11.3686 91.3529 10.9961 91.4337 10.769H93.1305C92.9516 11.2406 92.7092 11.9216 92.3918 12.8064C92.0801 13.6913 91.7165 14.6867 91.3182 15.781C90.9142 16.8812 90.4929 18.028 90.06 19.2213C89.6272 20.4147 89.2116 21.5614 88.8134 22.6616C88.4151 23.7618 88.0573 24.7514 87.7341 25.6362C87.4109 26.521 87.1685 27.2021 87.0068 27.6736H85.2927V27.6794Z" fill="#202020"/>
<path d="M99.1792 10.5945C99.8429 10.5945 100.512 10.6818 101.199 10.8564C101.886 11.0311 102.486 11.3862 103 11.9159L102.03 13.1325C101.528 12.6959 101.043 12.4107 100.564 12.2768C100.091 12.1487 99.6582 12.0789 99.2715 12.0789C98.9022 12.0789 98.527 12.1371 98.1461 12.2477C97.7652 12.3641 97.4246 12.5446 97.1187 12.8007C96.8128 13.0568 96.5647 13.3886 96.38 13.8019C96.1953 14.2152 96.1029 14.7217 96.1029 15.3096V18.1969C96.1029 18.7848 96.1953 19.2796 96.38 19.6871C96.5647 20.0946 96.8071 20.4264 97.1072 20.6767C97.4073 20.927 97.7421 21.1191 98.123 21.2413C98.5039 21.3636 98.8848 21.4218 99.2715 21.4218C99.6409 21.4218 100.097 21.3461 100.628 21.2006C101.159 21.0551 101.609 20.8106 101.984 20.4671L102.977 21.6139C102.446 22.0854 101.851 22.4172 101.199 22.6151C100.547 22.813 99.8891 22.9062 99.2254 22.9062C98.5155 22.9062 97.869 22.8014 97.2919 22.586C96.7147 22.3706 96.2184 22.0796 95.8086 21.6954C95.3988 21.3112 95.0871 20.8571 94.862 20.3274C94.6369 19.7977 94.5273 19.2156 94.5273 18.5811V14.9953C94.5273 14.3258 94.6485 13.7204 94.8851 13.1791C95.1218 12.6319 95.4565 12.172 95.8778 11.7878C96.2992 11.4036 96.7955 11.1067 97.3611 10.8972C97.9268 10.6993 98.5328 10.5945 99.1792 10.5945Z" fill="#202020"/>
<path d="M57.0754 24.5361H45.4975L43.287 31.3119H37.8328L48.695 0H53.9241L64.7805 31.3119H59.1935L57.0754 24.5361ZM46.9808 20.0422H55.5863L53.7394 14.1803L51.3499 6.22861H51.171L48.8739 13.8601L46.9808 20.0422Z" fill="white"/>
</svg>
